<svg version="1.1" id="Layer_1" xmlns="http://www.w3.org/2000/svg" xmlns:xlink="http://www.w3.org/1999/xlink" x="0px" y="0px" viewBox="0 0 16.6 31.2" style="enable-background:new 0 0 16.6 31.2;" xml:space="preserve">
 <style type="text/css">
  .st0{fill:#12E94E;}
 </style>
 <g>
  <path class="st0" d="M6.3,16.8l5.1-12.2c0.7-1.7-0.1-3.6-1.8-4.3S6,0.3,5.3,2L0.2,14.3c-0.6,1.7,0.3,3.6,2,4.2
		C3.8,19.1,5.6,18.4,6.3,16.8z">
  </path>
  <path class="st0" d="M14.6,12.5c-1.7-0.7-3.6,0.1-4.3,1.8L5.3,26.5c-0.8,1.7-0.1,3.6,1.6,4.4s3.6,0.1,4.4-1.6
		c0-0.1,0.1-0.2,0.1-0.3l5-12.2C17.1,15.1,16.3,13.2,14.6,12.5z">
  </path>
 </g>
</svg>